<?xml version="1.0" encoding="UTF-8" standalone="no"?>
<!-- Created with Inkscape (http://www.inkscape.org/) -->

<svg
   xmlns:dc="http://purl.org/dc/elements/1.1/"
   xmlns:cc="http://creativecommons.org/ns#"
   xmlns:rdf="http://www.w3.org/1999/02/22-rdf-syntax-ns#"
   xmlns:svg="http://www.w3.org/2000/svg"
   xmlns="http://www.w3.org/2000/svg"
   xmlns:sodipodi="http://sodipodi.sourceforge.net/DTD/sodipodi-0.dtd"
   xmlns:inkscape="http://www.inkscape.org/namespaces/inkscape"
   width="13.379147"
   height="56.861374"
   id="svg14992"
   version="1.1"
   inkscape:version="0.48.4 r9939"
   sodipodi:docname="semi-colon.svg">
  <defs
     id="defs14994" />
  <sodipodi:namedview
     id="base"
     pagecolor="#ffffff"
     bordercolor="#666666"
     borderopacity="1.0"
     inkscape:pageopacity="0.0"
     inkscape:pageshadow="2"
     inkscape:zoom="0.35"
     inkscape:cx="-115.45328"
     inkscape:cy="-31.569305"
     inkscape:document-units="px"
     inkscape:current-layer="layer1"
     showgrid="false"
     fit-margin-top="0"
     fit-margin-left="0"
     fit-margin-right="0"
     fit-margin-bottom="0"
     inkscape:window-width="463"
     inkscape:window-height="453"
     inkscape:window-x="130"
     inkscape:window-y="130"
     inkscape:window-maximized="0" />
  <metadata
     id="metadata14997">
    <rdf:RDF>
      <cc:Work
         rdf:about="">
        <dc:format>image/svg+xml</dc:format>
        <dc:type
           rdf:resource="http://purl.org/dc/dcmitype/StillImage" />
        <dc:title></dc:title>
      </cc:Work>
    </rdf:RDF>
  </metadata>
  <g
     inkscape:label="Layer 1"
     inkscape:groupmode="layer"
     id="layer1"
     transform="translate(-490.45328,-443.9315)">
    <g
       style="font-size:107.03317261px;font-style:normal;font-variant:normal;font-weight:normal;font-stretch:normal;line-height:125%;letter-spacing:0px;word-spacing:0px;fill:#27b0a9;fill-opacity:1;stroke:none;font-family:Oswald;-inkscape-font-specification:Oswald"
       id="text3134">
      <path
         d="m 490.45328,443.9315 13.37914,0 0,13.37915 -13.37914,0 z m 0,30.10308 13.37914,0 c -1e-5,5.01721 -0.0523,9.23303 -0.15678,12.64748 -0.10454,3.41448 -0.47038,6.16696 -1.09751,8.25744 -0.62716,2.0905 -1.62015,3.58868 -2.97895,4.49456 -1.35883,0.90588 -3.29254,1.35882 -5.80112,1.35882 l -3.34478,-6.68958 c 1.67238,1e-5 2.96152,-0.23517 3.86741,-0.70554 0.90587,-0.47035 1.56786,-1.05394 1.98596,-1.75078 0.41809,-0.69682 0.66198,-1.4285 0.73168,-2.19502 0.0697,-0.7665 0.10451,-1.44591 0.10452,-2.03823 l -6.68957,0 z"
         style=""
         id="path15010" />
    </g>
  </g>
</svg>
